<svg class="svg-icon" style="width: 1em;height: 1em;vertical-align: middle;fill: currentColor;overflow: hidden;" viewBox="0 0 1024 1024" version="1.1" xmlns="http://www.w3.org/2000/svg"><path d="M320.006 42.698c-23.466 0-42.67 19.186-42.67 42.654v218.446c0 23.468 19.204 42.654 42.67 42.654 23.468 0 42.67-19.186 42.67-42.654V170.692c0-23.468 19.186-42.67 42.654-42.67h213.352c23.438 0 42.624 19.202 42.624 42.67v133.104c0 23.468 19.218 42.654 42.688 42.654 23.466 0 42.684-19.186 42.684-42.654V85.352c0-23.468-19.216-42.654-42.684-42.654H320.006z" fill="#424953" /><path d="M320.006 42.698c-23.466 0-42.67 19.186-42.67 42.654v218.446c0 23.468 19.204 42.654 42.67 42.654 23.468 0 42.67-19.186 42.67-42.654V170.692c0-23.468 19.186-42.67 42.654-42.67h213.352c23.438 0 42.624 19.202 42.624 42.67v133.104c0 23.468 19.218 42.654 42.688 42.654 23.466 0 42.684-19.186 42.684-42.654V85.352c0-23.468-19.216-42.654-42.684-42.654H320.006z" fill="#424953" /><path d="M981.294 959.992a21.294 21.294 0 0 1-21.31 21.31H64.016c-11.78 0-21.328-9.53-21.328-21.31V405.34c0-11.78 9.546-21.328 21.328-21.328h895.968c11.782 0 21.31 9.546 21.31 21.328v554.652z" fill="#424953" /><path d="M959.984 384.012H64.016c-11.78 0-21.328 9.546-21.328 21.328v238.974c57.216 10.812 226.492 38.376 469.31 38.376 242.802 0 412.11-27.562 469.294-38.376V405.34c0.002-11.78-9.526-21.328-21.308-21.328z" opacity=".2" /><path d="M1023.98 576.006c0 11.782-9.562 21.312-21.31 21.312 0 0-188.398 42.686-490.67 42.686-302.27 0-490.654-42.686-490.654-42.686-11.782 0-21.328-9.532-21.328-21.312V234.69c0-11.782 9.546-21.344 21.328-21.344h981.324c11.748 0 21.31 9.562 21.31 21.344v341.316z" fill="#646C77" /><path d="M1002.67 213.346H21.346c-11.782 0-21.328 9.562-21.328 21.344v42.654c0-11.78 9.546-21.328 21.328-21.328h981.324c11.748 0 21.31 9.546 21.31 21.328v-42.654c0-11.78-9.562-21.344-21.31-21.344z" fill="#FFFFFF" opacity=".2" /><path d="M448.002 533.336h127.996v170.666h-127.996z" fill="#FECD57" /><path d="M575.998 512.008h-127.996c-11.78 0-21.326 9.546-21.326 21.328v170.666c0 11.78 9.546 21.31 21.326 21.31h127.996a21.298 21.298 0 0 0 21.312-21.31v-170.666c0-11.782-9.53-21.328-21.312-21.328z m-21.31 170.682h-85.358v-127.994h85.358v127.994z" fill="#F5BA45" /><path d="M512 576.006c-11.78 0-21.328 9.562-21.328 21.312v42.686c0 11.78 9.546 21.31 21.328 21.31s21.328-9.532 21.328-21.31v-42.686c0-11.75-9.546-21.312-21.328-21.312z" fill="#F5BA45" /><path d="M405.332 42.698h42.67v85.326h-42.67zM490.672 42.698h42.656v85.326h-42.656zM575.998 42.698h42.686v85.326h-42.686z" opacity=".2" /></svg>